<?xml version="1.0" standalone="no"?>
<!DOCTYPE svg PUBLIC "-//W3C//DTD SVG 20010904//EN"
 "http://www.w3.org/TR/2001/REC-SVG-20010904/DTD/svg10.dtd">
<svg version="1.0" xmlns="http://www.w3.org/2000/svg"
 width="192.000000pt" height="192.000000pt" viewBox="0 0 192.000000 192.000000"
 preserveAspectRatio="xMidYMid meet">

<g transform="translate(0.000000,192.000000) scale(0.100000,-0.100000)"
fill="#000000" stroke="none">
<path d="M483 1785 c0 -27 2 -38 4 -22 2 15 2 37 0 50 -2 12 -4 0 -4 -28z"/>
<path d="M965 1780 c-92 -9 -240 -55 -290 -91 -22 -15 -58 -46 -80 -69 -34
-37 -40 -39 -47 -23 -4 10 -4 -2 -1 -27 6 -48 28 -100 42 -100 4 0 22 16 40
36 35 38 73 43 79 11 6 -28 -94 -111 -183 -151 -43 -19 -176 -8 -204 18 -25
23 -28 10 -4 -17 13 -14 15 -21 6 -24 -20 -7 -37 -82 -23 -98 17 -21 117 -38
182 -32 65 6 82 -10 45 -40 -43 -36 -59 -62 -73 -123 -18 -78 -61 -166 -92
-191 -35 -27 -88 -25 -107 5 -32 49 -36 86 -19 199 17 117 15 151 -4 65 -34
-156 -42 -420 -16 -546 24 -118 69 -205 152 -294 39 -42 78 -92 85 -110 16
-38 32 -53 67 -62 14 -4 20 -4 14 1 -15 12 -84 162 -84 184 0 10 12 26 28 36
15 9 48 36 74 60 26 24 51 43 56 43 5 0 21 12 35 26 l26 25 46 -20 c25 -11 60
-23 78 -26 30 -6 32 -10 34 -48 1 -35 8 -47 38 -73 41 -36 80 -46 176 -45 78
1 129 21 153 61 20 35 21 93 1 110 -12 10 -7 18 33 49 52 42 122 116 122 130
0 5 31 39 68 75 38 37 75 79 83 94 7 15 28 48 46 74 34 47 40 69 63 226 15
109 12 169 -15 260 -44 151 -97 226 -206 291 -30 18 -72 45 -94 61 -25 19 -70
37 -120 49 -113 27 -131 29 -210 21z m190 -535 c48 -9 96 -20 107 -26 44 -24
98 -82 103 -112 10 -59 13 -312 4 -355 -20 -92 -161 -261 -254 -303 -57 -27
-158 -25 -210 2 -67 36 -115 80 -172 156 -83 113 -86 122 -85 319 1 94 5 182
11 195 11 30 72 86 110 101 97 39 241 48 386 23z m262 -357 c-3 -8 -6 -5 -6 6
-1 11 2 17 5 13 3 -3 4 -12 1 -19z m-819 -76 c15 -74 15 -82 -2 -82 -17 0 -46
69 -46 110 0 22 5 30 18 30 14 0 21 -13 30 -58z m862 32 c0 -61 -36 -132 -56
-111 -3 2 1 34 7 71 10 53 16 66 31 66 13 0 18 -7 18 -26z m-793 -217 c28 -44
105 -121 146 -145 39 -24 33 -36 -15 -28 -57 9 -161 70 -204 119 -43 50 -73
111 -74 150 l0 28 61 -43 c34 -24 72 -60 86 -81z"/>
<path d="M743 1100 c-24 -10 -43 -24 -43 -30 0 -14 6 -13 42 6 24 12 49 15
100 12 69 -5 88 5 42 22 -39 15 -95 11 -141 -10z"/>
<path d="M1143 1110 c-42 -17 -24 -28 35 -23 40 4 69 1 96 -11 72 -30 74 -8 2
25 -44 20 -97 23 -133 9z"/>
<path d="M765 1005 c-35 -18 -55 -42 -55 -64 1 -10 7 -5 16 11 16 30 43 48 71
47 15 0 14 -2 -5 -11 -23 -12 -36 -43 -30 -75 3 -15 14 -18 58 -19 31 -1 58 3
62 10 14 21 8 47 -17 71 -13 14 -22 25 -19 25 17 0 48 -26 64 -53 11 -18 20
-25 20 -17 0 39 -64 90 -112 90 -13 0 -36 -7 -53 -15z m45 -43 c0 -13 -12 -22
-22 -16 -10 6 -1 24 13 24 5 0 9 -4 9 -8z"/>
<path d="M1164 1010 c-24 -9 -74 -66 -74 -83 0 -7 9 1 19 17 11 16 28 34 38
39 15 8 16 7 6 -4 -17 -17 -16 -74 0 -88 8 -6 16 -9 18 -6 3 2 22 5 43 7 23 1
41 9 47 19 11 22 -3 64 -28 78 -17 10 -17 10 1 11 10 0 34 -16 52 -36 27 -28
32 -31 25 -12 -18 50 -93 80 -147 58z m17 -53 c-1 -12 -15 -9 -19 4 -3 6 1 10
8 8 6 -3 11 -8 11 -12z"/>
<path d="M942 750 c5 -37 50 -56 98 -41 40 12 58 37 40 55 -7 7 -10 5 -10 -6
0 -35 -79 -39 -110 -5 l-22 22 4 -25z"/>
<path d="M846 655 c9 -22 67 -62 106 -73 46 -13 119 -7 155 11 15 9 41 29 58
47 l30 31 -45 -8 c-55 -10 -221 -11 -272 -1 -29 5 -36 4 -32 -7z"/>
<path d="M572 1730 c0 -14 2 -19 5 -12 2 6 2 18 0 25 -3 6 -5 1 -5 -13z"/>
<path d="M556 1664 c-4 -20 -5 -38 -3 -40 3 -3 8 11 11 32 4 20 5 38 3 40 -3
3 -8 -11 -11 -32z"/>
<path d="M1260 410 c8 -5 20 -10 25 -10 6 0 3 5 -5 10 -8 5 -19 10 -25 10 -5
0 -3 -5 5 -10z"/>
</g>
</svg>
